<svg width="258" height="46" viewBox="0 0 258 46" fill="none" xmlns="http://www.w3.org/2000/svg">
<mask id="mask0_1_9" style="mask-type:luminance" maskUnits="userSpaceOnUse" x="0" y="3" width="42" height="41">
<path d="M42 3H0V44H42V3Z" fill="white"/>
</mask>
<g mask="url(#mask0_1_9)">
<path d="M23.143 10.0217L24.763 8.46419C27.9441 5.40568 33.1231 5.32998 36.3226 8.37086C37.5349 9.52567 38.3406 11.0166 38.6264 12.6342C38.9122 14.2518 38.6637 15.9149 37.9159 17.3898C37.5572 18.0943 37.4364 18.889 37.5701 19.6627C37.704 20.4365 38.0859 21.1508 38.6624 21.7058C39.7227 20.6841 40.563 19.4715 41.1356 18.1375C41.7082 16.8034 42.0019 15.374 41.9998 13.9308C41.9975 12.4876 41.6999 11.0589 41.1233 9.72644C40.5467 8.39393 39.7027 7.18371 38.6395 6.1649C34.1656 1.88777 26.9037 1.97288 22.4423 6.26203L7.00142 21.1071L5.73204 19.8867C2.49693 16.7763 2.4763 11.6921 5.76849 8.63702C6.98711 7.50965 8.53966 6.7737 10.2118 6.53077C11.884 6.28785 13.5934 6.54992 15.1041 7.2808C15.7936 7.62051 16.5771 7.74204 17.3428 7.62803C18.1084 7.51401 18.817 7.17029 19.3674 6.64595L19.4067 6.6083C19.419 6.5966 19.4287 6.58268 19.4353 6.56734C19.442 6.55202 19.4454 6.53558 19.4454 6.51898C19.4454 6.50238 19.442 6.48593 19.4353 6.47061C19.4287 6.45529 19.419 6.44137 19.4067 6.42966C17.2815 4.43771 14.4336 3.31884 11.4656 3.30979C8.49762 3.30075 5.64236 4.40224 3.50406 6.38119C-1.10209 10.6563 -1.08563 17.7655 3.44157 22.1181L18.8779 36.9592L17.2381 38.5357C14.057 41.5942 8.87779 41.6699 5.6785 38.6291C4.46618 37.4743 3.66053 35.9833 3.37472 34.3657C3.08894 32.7482 3.33731 31.0851 4.08501 29.6102C4.44372 28.9056 4.56462 28.1109 4.43083 27.3373C4.29702 26.5635 3.91518 25.8491 3.33867 25.2942C2.27848 26.3159 1.43807 27.5284 0.865423 28.8624C0.292778 30.1965 -0.000865118 31.6259 0.0012627 33.0692C0.00339053 34.5123 0.301247 35.941 0.877825 37.2734C1.4544 38.606 2.2984 39.8162 3.36158 40.835C7.83525 45.1123 15.0974 45.0274 19.5588 40.7381L35.0197 25.8731L36.2939 27.0982C39.475 30.1567 39.5538 35.136 36.3909 38.2119C35.1899 39.3777 33.6391 40.1521 31.9566 40.4271C30.2742 40.7018 28.5445 40.4629 27.0103 39.7439C26.2773 39.3989 25.4504 39.2825 24.6453 39.4115C23.8402 39.5403 23.097 39.9078 22.5198 40.4625C23.5825 41.4819 24.8436 42.29 26.2311 42.8405C27.6188 43.391 29.1054 43.6734 30.6066 43.6714C32.1076 43.6692 33.5937 43.3828 34.9795 42.8285C36.3655 42.2741 37.6243 41.4627 38.6839 40.4405C43.1328 36.1393 43.0442 29.1571 38.5831 24.868L23.143 10.0217ZM21.1829 34.742L9.3071 23.3241L20.8371 12.2389L32.713 23.6568L21.1829 34.742Z" fill="#FC6603"/>
</g>
<path d="M52.5273 27.6836L58.1523 27.1367C58.4909 29.0247 59.1745 30.4115 60.2031 31.2969C61.2448 32.1823 62.6445 32.625 64.4023 32.625C66.2643 32.625 67.6641 32.2344 68.6016 31.4531C69.5521 30.6589 70.0273 29.7344 70.0273 28.6797C70.0273 28.0026 69.8255 27.4297 69.4219 26.9609C69.0312 26.4792 68.3411 26.0625 67.3516 25.7109C66.6745 25.4766 65.1315 25.0599 62.7227 24.4609C59.6237 23.6927 57.4492 22.7487 56.1992 21.6289C54.4414 20.0534 53.5625 18.1328 53.5625 15.8672C53.5625 14.4089 53.9727 13.0482 54.793 11.7852C55.6263 10.5091 56.8177 9.53906 58.3672 8.875C59.9297 8.21094 61.8112 7.87891 64.0117 7.87891C67.6055 7.87891 70.3073 8.66667 72.1172 10.2422C73.9401 11.8177 74.8971 13.9206 74.9883 16.5508L69.207 16.8047C68.9596 15.3333 68.4258 14.2786 67.6055 13.6406C66.7982 12.9896 65.5807 12.6641 63.9531 12.6641C62.2734 12.6641 60.9583 13.0091 60.0078 13.6992C59.3958 14.1419 59.0898 14.7344 59.0898 15.4766C59.0898 16.1536 59.3763 16.7331 59.9492 17.2148C60.6784 17.8268 62.4492 18.4648 65.2617 19.1289C68.0742 19.793 70.151 20.4831 71.4922 21.1992C72.8464 21.9023 73.901 22.8724 74.6562 24.1094C75.4245 25.3333 75.8086 26.8503 75.8086 28.6602C75.8086 30.3008 75.3529 31.8372 74.4414 33.2695C73.5299 34.7018 72.2409 35.7695 70.5742 36.4727C68.9076 37.1628 66.8307 37.5078 64.3438 37.5078C60.724 37.5078 57.944 36.6745 56.0039 35.0078C54.0638 33.3281 52.9049 30.8867 52.5273 27.6836ZM99.5 37H94.0117V26.4141C94.0117 24.1745 93.8945 22.7292 93.6602 22.0781C93.4258 21.4141 93.0417 20.8997 92.5078 20.5352C91.987 20.1706 91.3555 19.9883 90.6133 19.9883C89.6628 19.9883 88.8099 20.2487 88.0547 20.7695C87.2995 21.2904 86.7786 21.9805 86.4922 22.8398C86.2188 23.6992 86.082 25.2878 86.082 27.6055V37H80.5938V16.2578H85.6914V19.3047C87.5013 16.9609 89.7799 15.7891 92.5273 15.7891C93.7383 15.7891 94.8451 16.0104 95.8477 16.4531C96.8503 16.8828 97.6055 17.4362 98.1133 18.1133C98.6341 18.7904 98.9922 19.5586 99.1875 20.418C99.3958 21.2773 99.5 22.5078 99.5 24.1094V37ZM109.188 22.5859L104.207 21.6875C104.767 19.6823 105.73 18.1979 107.098 17.2344C108.465 16.2708 110.496 15.7891 113.191 15.7891C115.639 15.7891 117.462 16.082 118.66 16.668C119.858 17.2409 120.698 17.9766 121.18 18.875C121.674 19.7604 121.922 21.3945 121.922 23.7773L121.863 30.1836C121.863 32.0065 121.948 33.3542 122.117 34.2266C122.299 35.0859 122.632 36.0104 123.113 37H117.684C117.54 36.6354 117.365 36.0951 117.156 35.3789C117.065 35.0534 117 34.8385 116.961 34.7344C116.023 35.6458 115.021 36.3294 113.953 36.7852C112.885 37.2409 111.746 37.4688 110.535 37.4688C108.4 37.4688 106.714 36.8893 105.477 35.7305C104.253 34.5716 103.641 33.1068 103.641 31.3359C103.641 30.1641 103.921 29.1224 104.48 28.2109C105.04 27.2865 105.822 26.5833 106.824 26.1016C107.84 25.6068 109.298 25.1771 111.199 24.8125C113.764 24.3307 115.542 23.8815 116.531 23.4648V22.918C116.531 21.8633 116.271 21.1146 115.75 20.6719C115.229 20.2161 114.246 19.9883 112.801 19.9883C111.824 19.9883 111.062 20.1836 110.516 20.5742C109.969 20.9518 109.526 21.6224 109.188 22.5859ZM116.531 27.0391C115.828 27.2734 114.715 27.5534 113.191 27.8789C111.668 28.2044 110.672 28.5234 110.203 28.8359C109.487 29.3438 109.129 29.9883 109.129 30.7695C109.129 31.5378 109.415 32.2018 109.988 32.7617C110.561 33.3216 111.29 33.6016 112.176 33.6016C113.165 33.6016 114.109 33.276 115.008 32.625C115.672 32.1302 116.108 31.5247 116.316 30.8086C116.46 30.3398 116.531 29.4479 116.531 28.1328V27.0391ZM127.195 16.2578H132.312V19.3047C132.977 18.263 133.875 17.4167 135.008 16.7656C136.141 16.1146 137.397 15.7891 138.777 15.7891C141.186 15.7891 143.23 16.7331 144.91 18.6211C146.59 20.5091 147.43 23.1393 147.43 26.5117C147.43 29.9753 146.583 32.6706 144.891 34.5977C143.198 36.5117 141.147 37.4688 138.738 37.4688C137.592 37.4688 136.551 37.2409 135.613 36.7852C134.689 36.3294 133.712 35.5482 132.684 34.4414V44.8906H127.195V16.2578ZM132.625 26.2773C132.625 28.6081 133.087 30.3333 134.012 31.4531C134.936 32.5599 136.062 33.1133 137.391 33.1133C138.667 33.1133 139.728 32.6055 140.574 31.5898C141.421 30.5612 141.844 28.8815 141.844 26.5508C141.844 24.3763 141.408 22.7617 140.535 21.707C139.663 20.6523 138.582 20.125 137.293 20.125C135.952 20.125 134.839 20.6458 133.953 21.6875C133.068 22.7161 132.625 24.2461 132.625 26.2773ZM151.844 37V8.36719H173.074V13.2109H157.625V19.5586H172V24.3828H157.625V32.1758H173.621V37H151.844ZM184.188 37L175.828 16.2578H181.59L185.496 26.8438L186.629 30.3789C186.928 29.4805 187.117 28.888 187.195 28.6016C187.378 28.0156 187.573 27.4297 187.781 26.8438L191.727 16.2578H197.371L189.129 37H184.188ZM212.762 30.3984L218.23 31.3164C217.527 33.3216 216.414 34.8516 214.891 35.9062C213.38 36.9479 211.486 37.4688 209.207 37.4688C205.6 37.4688 202.931 36.2904 201.199 33.9336C199.832 32.0456 199.148 29.6628 199.148 26.7852C199.148 23.3477 200.047 20.6589 201.844 18.7188C203.641 16.7656 205.913 15.7891 208.66 15.7891C211.746 15.7891 214.181 16.8112 215.965 18.8555C217.749 20.8867 218.602 24.0052 218.523 28.2109H204.773C204.812 29.8385 205.255 31.1081 206.102 32.0195C206.948 32.918 208.003 33.3672 209.266 33.3672C210.125 33.3672 210.848 33.1328 211.434 32.6641C212.02 32.1953 212.462 31.4401 212.762 30.3984ZM213.074 24.8516C213.035 23.263 212.625 22.0586 211.844 21.2383C211.062 20.4049 210.112 19.9883 208.992 19.9883C207.794 19.9883 206.805 20.4245 206.023 21.2969C205.242 22.1693 204.858 23.3542 204.871 24.8516H213.074ZM241.883 37H236.395V26.4141C236.395 24.1745 236.277 22.7292 236.043 22.0781C235.809 21.4141 235.424 20.8997 234.891 20.5352C234.37 20.1706 233.738 19.9883 232.996 19.9883C232.046 19.9883 231.193 20.2487 230.438 20.7695C229.682 21.2904 229.161 21.9805 228.875 22.8398C228.602 23.6992 228.465 25.2878 228.465 27.6055V37H222.977V16.2578H228.074V19.3047C229.884 16.9609 232.163 15.7891 234.91 15.7891C236.121 15.7891 237.228 16.0104 238.23 16.4531C239.233 16.8828 239.988 17.4362 240.496 18.1133C241.017 18.7904 241.375 19.5586 241.57 20.418C241.779 21.2773 241.883 22.5078 241.883 24.1094V37ZM256.98 16.2578V20.6328H253.23V28.9922C253.23 30.6849 253.263 31.6745 253.328 31.9609C253.406 32.2344 253.569 32.4622 253.816 32.6445C254.077 32.8268 254.389 32.918 254.754 32.918C255.262 32.918 255.997 32.7422 256.961 32.3906L257.43 36.6484C256.154 37.1953 254.708 37.4688 253.094 37.4688C252.104 37.4688 251.212 37.306 250.418 36.9805C249.624 36.6419 249.038 36.2122 248.66 35.6914C248.296 35.1576 248.042 34.4414 247.898 33.543C247.781 32.9049 247.723 31.6159 247.723 29.6758V20.6328H245.203V16.2578H247.723V12.1367L253.23 8.93359V16.2578H256.98Z" fill="#0F0D0D"/>
</svg>
